# xmcd
#
# Track frame offsets:
#	150
#	38956
#	66750
#	90288
#	94947
#	121752
#	144107
#	166218
#	191756
#	212495
#
# Disc length: 3537 seconds
#
# Revision: 1
# Processed by: cddbd v1.5.1PL2 Copyright (c) Steve Scherf et al.
# Submitted via: EasyCDDAExtractor 9.0.0.1
#
DISCID=7c0dcf0a
DTITLE=Whitesnake - Europahalle Karlsruhe 04-09-04 Disc 1 Source 2
DYEAR=2004
DGENRE=Hard Rock
TTITLE0=Burn - Stormbringer - Burn
TTITLE1=Absolution Blues
TTITLE2=Love Ain't No Stranger
TTITLE3=Mistreated (A Capella)
TTITLE4=Ready An' Willing 
TTITLE5=Is This Love
TTITLE6=Give Me All Your Love
TTITLE7=Judgement Day 
TTITLE8=Snake Dance
TTITLE9=Crying In The Rain - Drum Solo
EXTD=
EXTT0=
EXTT1=
EXTT2=
EXTT3=
EXTT4=
EXTT5=
EXTT6=
EXTT7=
EXTT8=
EXTT9=
PLAYORDER=
